<svg width="120" height="24" viewBox="0 0 120 24" fill="none" xmlns="http://www.w3.org/2000/svg">
<g clip-path="url(#clip0_1528_5107)">
<path d="M32.8574 0.73016C32.8574 1.13342 33.1843 1.46032 33.5876 1.46032H34.3177C34.721 1.46032 35.0479 1.13342 35.0479 0.73016C35.0479 0.326905 34.721 0 34.3177 0H33.5876C33.1843 0 32.8574 0.326905 32.8574 0.73016Z" fill="#42307D"/>
<path d="M11.6826 23.3652H15.2296L14.197 22.3326C13.9231 22.0587 13.5517 21.9049 13.1644 21.9049H11.6826C6.03698 21.9049 1.46032 17.3282 1.46032 11.6826C1.46032 6.03698 6.03698 1.46033 11.6826 1.46032H23.3652C29.0108 1.46032 33.5875 6.03698 33.5875 11.6826C33.5875 17.3282 29.0108 21.9049 23.3652 21.9049H18.995C18.414 21.9049 17.8568 21.6741 17.446 21.2633L16.2363 20.0535C15.5516 19.3689 14.623 18.9842 13.6547 18.9842H11.6826C7.65 18.9842 4.38097 15.7152 4.38097 11.6826C4.38097 7.65 7.65 4.38097 11.6826 4.38097H23.3652C27.3978 4.38097 30.6668 7.65 30.6668 11.6826C30.6668 15.7152 27.3978 18.9842 23.3652 18.9842H20.5591C19.9781 18.9842 19.421 18.7534 19.0102 18.3427L17.8004 17.1329C17.1157 16.4482 16.1871 16.0636 15.2189 16.0636H11.6826C9.26307 16.0636 7.30162 14.1021 7.30162 11.6826C7.30162 9.26307 9.26307 7.30162 11.6826 7.30162H23.3652C25.7847 7.30162 27.7462 9.26307 27.7462 11.6826C27.7462 14.0726 25.8323 16.0157 23.4535 16.0627L23.453 16.0636H22.3845C21.8035 16.0636 21.2464 15.8328 20.8356 15.422L19.6258 14.2122C19.064 13.6504 18.338 13.2906 17.5606 13.1796L17.5239 13.1429H11.6826C10.8761 13.1429 10.2223 12.4891 10.2223 11.6826C10.2223 10.8761 10.8761 10.2223 11.6826 10.2223H23.3652C24.1717 10.2223 24.8255 10.8761 24.8255 11.6826C24.8255 12.4891 24.1717 13.1429 23.3652 13.1429H20.4445L21.4772 14.1755C21.751 14.4494 22.1225 14.6032 22.5097 14.6032H23.3652C24.9782 14.6032 26.2858 13.2956 26.2858 11.6826C26.2858 10.0696 24.9782 8.76195 23.3652 8.76195H11.6826C10.0696 8.76195 8.76195 10.0696 8.76195 11.6826C8.76195 13.2956 10.0696 14.6032 11.6826 14.6032H17.0443C17.6252 14.6032 18.1824 14.834 18.5932 15.2448L19.803 16.4546C20.4877 17.1392 21.4162 17.5239 22.3845 17.5239H23.7303V17.5127C26.7863 17.3242 29.2065 14.786 29.2065 11.6826C29.2065 8.45656 26.5912 5.8413 23.3652 5.8413H11.6826C8.45656 5.8413 5.8413 8.45656 5.8413 11.6826C5.8413 14.9087 8.45656 17.5239 11.6826 17.5239H15.2189C15.7998 17.5239 16.357 17.7547 16.7678 18.1654L17.9776 19.3752C18.6622 20.0599 19.5908 20.4445 20.5591 20.4445H23.3652C28.2043 20.4445 32.1271 16.5217 32.1271 11.6826C32.1271 6.84349 28.2043 2.92065 23.3652 2.92065H11.6826C6.84349 2.92065 2.92065 6.84349 2.92065 11.6826C2.92065 16.5217 6.84349 20.4445 11.6826 20.4445H13.6547C14.2357 20.4445 14.7929 20.6753 15.2037 21.0861L16.4135 22.2959C17.0981 22.9805 18.0267 23.3652 18.995 23.3652H23.3652C29.8173 23.3652 35.0478 18.1347 35.0478 11.6826C35.0478 5.23047 29.8173 -5.64062e-07 23.3652 0L11.6826 2.414e-06C5.23047 2.97806e-06 -5.64062e-07 5.23048 0 11.6826C5.64062e-07 18.1347 5.23048 23.3652 11.6826 23.3652Z" fill="#42307D"/>
</g>
<path d="M49.9237 17.1826H47.9922V5.79598H49.9237L53.5998 14.8617L57.276 5.79598H59.2386V17.1826H57.3071V13.6778C57.3071 11.388 57.3071 10.7182 57.4161 9.90825L54.5189 17.1826H52.6808L49.7991 9.92383C49.9081 10.6092 49.9237 11.684 49.9237 13.1015V17.1826ZM61.0267 13.3196C61.0267 10.9207 62.7557 9.26961 65.139 9.26961C67.5222 9.26961 69.2512 10.9207 69.2512 13.3196C69.2512 15.7184 67.5222 17.3695 65.139 17.3695C62.7557 17.3695 61.0267 15.7184 61.0267 13.3196ZM62.927 13.3196C62.927 14.7215 63.8305 15.6717 65.139 15.6717C66.4474 15.6717 67.3509 14.7215 67.3509 13.3196C67.3509 11.9177 66.4474 10.9675 65.139 10.9675C63.8305 10.9675 62.927 11.9177 62.927 13.3196ZM72.558 17.1826L69.505 9.48768H71.5299L72.8695 13.0236C73.1967 13.9426 73.4615 14.7371 73.5549 15.1576C73.664 14.6748 73.9443 13.8648 74.2715 13.0236L75.6734 9.48768H77.636L74.4272 17.1826H72.558ZM81.7907 17.3851C79.5009 17.3851 77.8965 15.7184 77.8965 13.3351C77.8965 10.9207 79.4697 9.25403 81.7284 9.25403C84.0337 9.25403 85.4979 10.7961 85.4979 13.195V13.7713L79.7034 13.7869C79.8436 15.1421 80.5601 15.8274 81.8218 15.8274C82.8655 15.8274 83.5508 15.4224 83.7689 14.6903H85.5291C85.202 16.3726 83.8001 17.3851 81.7907 17.3851ZM81.7439 10.8117C80.6224 10.8117 79.937 11.4192 79.7501 12.5719H83.6132C83.6132 11.5127 82.881 10.8117 81.7439 10.8117ZM86.5671 13.3196C86.5671 10.9363 88.1404 9.25403 90.4146 9.25403C92.5175 9.25403 93.9505 10.4223 94.153 12.2759H92.2527C92.0346 11.4036 91.396 10.9519 90.4925 10.9519C89.2775 10.9519 88.4675 11.8709 88.4675 13.3196C88.4675 14.7682 89.2152 15.6717 90.4302 15.6717C91.3804 15.6717 92.0502 15.2044 92.2527 14.3632H94.1686C93.935 16.1545 92.4396 17.3851 90.4302 17.3851C88.0937 17.3851 86.5671 15.7651 86.5671 13.3196ZM97.8729 17.3851C96.2373 17.3851 95.2404 16.4349 95.2404 14.9863C95.2404 13.5688 96.2684 12.6809 98.0909 12.5407L100.396 12.3694V12.198C100.396 11.1544 99.7732 10.7338 98.8075 10.7338C97.6859 10.7338 97.0629 11.2011 97.0629 12.0111H95.4429C95.4429 10.3444 96.8136 9.25403 98.9009 9.25403C100.973 9.25403 102.25 10.3756 102.25 12.5096V17.1826H100.583L100.443 16.0455C100.116 16.8399 99.0723 17.3851 97.8729 17.3851ZM98.4959 15.9521C99.6642 15.9521 100.412 15.2511 100.412 14.0673V13.6623L98.8075 13.7869C97.6236 13.8959 97.1719 14.2853 97.1719 14.9084C97.1719 15.6094 97.6392 15.9521 98.4959 15.9521ZM103.525 14.8461H105.332C105.347 15.5159 105.846 15.9365 106.718 15.9365C107.606 15.9365 108.089 15.5782 108.089 15.0174C108.089 14.628 107.886 14.3476 107.201 14.1919L105.815 13.8648C104.428 13.5532 103.759 12.899 103.759 11.6684C103.759 10.1575 105.036 9.25403 106.812 9.25403C108.541 9.25403 109.709 10.2509 109.724 11.7463H107.918C107.902 11.0921 107.466 10.6715 106.734 10.6715C105.986 10.6715 105.55 11.0142 105.55 11.5905C105.55 12.0267 105.893 12.3071 106.547 12.4628L107.933 12.79C109.226 13.0859 109.88 13.6778 109.88 14.8617C109.88 16.4194 108.556 17.3851 106.656 17.3851C104.74 17.3851 103.525 16.357 103.525 14.8461ZM113.228 17.1826H111.327V5.59348H113.243V10.4846C113.726 9.73691 114.629 9.25403 115.735 9.25403C117.636 9.25403 118.633 10.4534 118.633 12.4473V17.1826H116.732V12.899C116.732 11.6061 116.094 10.9831 115.128 10.9831C113.929 10.9831 113.228 11.8242 113.228 12.9769V17.1826Z" fill="#42307D"/>
<defs>
<clipPath id="clip0_1528_5107">
<rect width="35.0478" height="23.3652" fill="white"/>
</clipPath>
</defs>
</svg>
