<svg width="206" height="118" viewBox="0 0 206 118" fill="none" xmlns="http://www.w3.org/2000/svg">
<path d="M-29.3333 118H6.39203L-4.00853 107.57C-6.76663 104.804 -10.5078 103.25 -14.4085 103.25H-29.3333C-86.1958 103.25 -132.292 57.0235 -132.292 0C-132.292 -57.0235 -86.1958 -103.25 -29.3333 -103.25H88.3333C145.196 -103.25 191.292 -57.0235 191.292 0C191.292 57.0235 145.196 103.25 88.3333 103.25H44.3166C38.465 103.25 32.8535 100.919 28.7157 96.77L16.5314 84.5506C9.63551 77.6352 0.282181 73.75 -9.47003 73.75H-29.3333C-69.9495 73.75 -102.875 40.7312 -102.875 0C-102.875 -40.7312 -69.9495 -73.75 -29.3333 -73.75H88.3333C128.949 -73.75 161.875 -40.7312 161.875 0C161.875 40.7312 128.949 73.75 88.3333 73.75H60.0704C54.2188 73.75 48.6073 71.4189 44.4695 67.27L32.2846 55.0506C25.3887 48.1352 16.036 44.25 6.28377 44.25H-29.3333C-53.7027 44.25 -73.4583 24.4384 -73.4583 0C-73.4583 -24.4384 -53.7027 -44.25 -29.3333 -44.25H88.3333C112.703 -44.25 132.458 -24.4384 132.458 0C132.458 24.1404 113.182 43.7662 89.2229 44.2411L89.2182 44.25H78.4558C72.6042 44.25 66.9927 41.9189 62.855 37.77L50.67 25.5506C45.012 19.8759 37.6996 16.2421 29.8695 15.1205L29.5 14.75H-29.3333C-37.4565 14.75 -44.0417 8.14613 -44.0417 0C-44.0417 -8.14613 -37.4565 -14.75 -29.3333 -14.75H88.3333C96.4565 -14.75 103.042 -8.14613 103.042 0C103.042 8.14613 96.4565 14.75 88.3333 14.75H58.9167L69.3172 25.18C72.0753 27.9459 75.8165 29.5 79.7172 29.5H88.3333C104.58 29.5 117.75 16.2923 117.75 0C117.75 -16.2923 104.58 -29.5 88.3333 -29.5H-29.3333C-45.5796 -29.5 -58.75 -16.2923 -58.75 0C-58.75 16.2923 -45.5796 29.5 -29.3333 29.5H24.6692C30.5208 29.5 36.1323 31.8311 40.27 35.98L52.455 48.1995C59.3508 55.1149 68.7036 59 78.4558 59H92.0104V58.8867C122.79 56.9834 147.167 31.3461 147.167 0C147.167 -32.5845 120.826 -59 88.3333 -59H-29.3333C-61.8258 -59 -88.1667 -32.5845 -88.1667 0C-88.1667 32.5851 -61.8258 59 -29.3333 59H6.28377C12.1353 59 17.7469 61.3311 21.8846 65.48L34.0696 77.6995C40.9654 84.6149 50.3182 88.5 60.0704 88.5H88.3333C137.073 88.5 176.583 48.8774 176.583 0C176.583 -48.8774 137.073 -88.5 88.3333 -88.5H-29.3333C-78.0726 -88.5 -117.583 -48.8774 -117.583 0C-117.583 48.8774 -78.0726 88.5 -29.3333 88.5H-9.47003C-3.61847 88.5 1.99306 90.8311 6.13081 94.98L18.3158 107.199C25.2116 114.115 34.5644 118 44.3166 118H88.3333C153.319 118 206 65.1696 206 0C206 -65.1696 153.319 -118 88.3333 -118L-29.3333 -118C-94.3189 -118 -147 -65.1696 -147 0C-147 65.1696 -94.3188 118 -29.3333 118Z" fill="#FCFAFF"/>
</svg>
