<svg width="468" height="564" viewBox="0 0 468 564" fill="none" xmlns="http://www.w3.org/2000/svg">
<path d="M347.333 696H452.789L422.088 665.24C413.947 657.083 402.903 652.5 391.389 652.5H347.333C179.484 652.5 43.4167 516.171 43.4167 348C43.4167 179.829 179.484 43.5002 347.333 43.5H694.667C862.516 43.5 998.583 179.829 998.583 348C998.583 516.171 862.516 652.5 694.667 652.5H564.736C547.463 652.5 530.899 645.625 518.685 633.39L482.719 597.352C462.363 576.958 434.754 565.5 405.967 565.5H347.333C227.441 565.5 130.25 468.123 130.25 348C130.25 227.877 227.441 130.5 347.333 130.5H694.667C814.559 130.5 911.75 227.877 911.75 348C911.75 468.123 814.559 565.5 694.667 565.5H611.239C593.966 565.5 577.402 558.625 565.188 546.39L529.22 510.352C508.864 489.958 481.256 478.5 452.469 478.5H347.333C275.399 478.5 217.083 420.073 217.083 348C217.083 275.927 275.399 217.5 347.333 217.5H694.667C766.601 217.5 824.917 275.927 824.917 348C824.917 419.194 768.015 477.073 697.292 478.474L697.279 478.5H665.51C648.237 478.5 631.673 471.625 619.459 459.39L583.49 423.352C566.789 406.617 545.204 395.9 522.091 392.593L521 391.5H347.333C323.355 391.5 303.917 372.024 303.917 348C303.917 323.976 323.355 304.5 347.333 304.5H694.667C718.645 304.5 738.083 323.976 738.083 348C738.083 372.024 718.645 391.5 694.667 391.5H607.833L638.534 422.26C646.676 430.417 657.719 435 669.233 435H694.667C742.623 435 781.5 396.048 781.5 348C781.5 299.952 742.623 261 694.667 261H347.333C299.377 261 260.5 299.952 260.5 348C260.5 396.048 299.377 435 347.333 435H506.74C524.013 435 540.577 441.875 552.791 454.11L588.76 490.148C609.115 510.542 636.723 522 665.51 522H705.521V521.666C796.378 516.053 868.333 440.444 868.333 348C868.333 251.903 790.579 174 694.667 174H347.333C251.421 174 173.667 251.903 173.667 348C173.667 444.098 251.421 522 347.333 522H452.469C469.742 522 486.307 528.875 498.521 541.11L534.489 577.148C554.844 597.542 582.452 609 611.239 609H694.667C838.537 609 955.167 492.147 955.167 348C955.167 203.853 838.537 87 694.667 87H347.333C203.463 87 86.8333 203.853 86.8333 348C86.8333 492.147 203.463 609 347.333 609H405.967C423.24 609 439.804 615.875 452.018 628.11L487.986 664.148C508.341 684.542 535.949 696 564.736 696H694.667C886.494 696 1042 540.195 1042 348C1042 155.805 886.494 -1.68022e-05 694.667 0L347.333 7.19079e-05C155.506 8.87102e-05 -1.677e-05 155.805 0 348C1.677e-05 540.195 155.507 696 347.333 696Z" fill="#FCFAFF"/>
</svg>
